# xmcd
# 
# Track frame offsets:
#     150
#     16049
#     25317
#     40258
#     53550
#     68271
#     82416
#     95202
#     108576
#     122028
#     136167
#     150186
#     160349
#     174193
#     187131
#     196588
#     211798
#     224725
# 
# Disc length: 3136
# 
# Revision: 1
# Processed by: cddbd v1.5.2PL0 Copyright (c) Steve Scherf et al.
# Submitted via: BonkEnc v1.0.6
# 
DISCID=ee0c3e12
DTITLE=Peggy Lee - Tesco Collection
DYEAR=2006
DGENRE=Jazz
TTITLE0=Summertime
TTITLE1=Let's Do It (Let's Fall In Love)
TTITLE2=I Got It Bad And That Ain't Good
TTITLE3=Golden Earrings
TTITLE4=On The Sunny Side Of The Street
TTITLE5=Stormy Weather
TTITLE6=Bye Bye Blues
TTITLE7=Somebody Loves Me
TTITLE8=Them There Eyes
TTITLE9=Happiness Is A Thing Called Joe
TTITLE10=How Deep Is The Ocean?
TTITLE11=Just One Of Those Things
TTITLE12='Deed I Do
TTITLE13=Elmer's Tune
TTITLE14=Let There Be Love
TTITLE15=The Way You Look Tonight
TTITLE16=I Let A Song Go Out Of My Heart
TTITLE17=Nice Work If You Can Get It
EXTD=YEAR: 2006
EXTT0=
EXTT1=
EXTT2=
EXTT3=
EXTT4=
EXTT5=
EXTT6=
EXTT7=
EXTT8=
EXTT9=
EXTT10=
EXTT11=
EXTT12=
EXTT13=
EXTT14=
EXTT15=
EXTT16=
EXTT17=
PLAYORDER=
